<svg xmlns="http://www.w3.org/2000/svg" width="236" height="22" fill="none"><path fill="#fff" fill-opacity=".7" d="M0 5a5 5 0 0 1 5-5h226a5 5 0 0 1 5 5v12a5 5 0 0 1-5 5H5a5 5 0 0 1-5-5V5Z"/><path fill="#000" d="M149 3h27v16h-27z"/><path fill="#EB5757" d="M189 3h34v16h-34z"/><path fill="#000" d="M29.376 6.096v1.12h-2.72V16h-1.312V7.216h-2.72v-1.12h6.752ZM34.144 8.4c1.003 0 1.776.315 2.32.944.544.619.816 1.563.816 2.832v.464h-5.312c.053.768.304 1.355.752 1.76.459.395 1.099.592 1.92.592.47 0 .87-.037 1.2-.112a3.53 3.53 0 0 0 .752-.24l.176 1.12c-.16.085-.448.176-.864.272a6.282 6.282 0 0 1-1.408.144c-.64 0-1.205-.096-1.696-.288a3.467 3.467 0 0 1-1.2-.816 3.318 3.318 0 0 1-.72-1.216c-.16-.48-.24-.997-.24-1.552 0-.661.101-1.237.304-1.728.203-.49.47-.896.8-1.216.33-.32.704-.56 1.12-.72.416-.16.843-.24 1.28-.24Zm1.792 3.168c0-.63-.165-1.125-.496-1.488-.33-.373-.768-.56-1.312-.56-.31 0-.592.059-.848.176a2.143 2.143 0 0 0-.64.464c-.181.192-.325.41-.432.656a2.725 2.725 0 0 0-.208.752h3.936Zm7.68 2.576a.79.79 0 0 0-.336-.656 3.08 3.08 0 0 0-.816-.448c-.32-.128-.672-.25-1.056-.368a6.5 6.5 0 0 1-1.072-.464 2.957 2.957 0 0 1-.816-.672c-.213-.267-.32-.613-.32-1.04 0-.597.24-1.093.72-1.488.49-.405 1.253-.608 2.288-.608.405 0 .821.032 1.248.096.437.053.81.128 1.12.224l-.24 1.184a2.111 2.111 0 0 0-.352-.128 2.988 2.988 0 0 0-.512-.128 6.271 6.271 0 0 0-1.248-.128c-1.152 0-1.728.315-1.728.944 0 .224.107.416.32.576.224.15.501.288.832.416.33.128.688.261 1.072.4.384.128.741.288 1.072.48.33.192.603.427.816.704.224.267.336.608.336 1.024 0 .672-.261 1.195-.784 1.568-.523.363-1.35.544-2.48.544a7.22 7.22 0 0 1-1.408-.128 5.766 5.766 0 0 1-1.216-.384l.256-1.2c.373.17.763.315 1.168.432.416.107.859.16 1.328.16 1.205 0 1.808-.304 1.808-.912Zm6.272-5.568h3.136V9.68h-3.136v3.456c0 .373.027.677.08.912.053.235.139.427.256.576a.999.999 0 0 0 .48.288c.192.053.427.08.704.08.384 0 .693-.032.928-.096a3.67 3.67 0 0 0 .672-.256l.192 1.12c-.15.064-.39.15-.72.256-.32.107-.72.16-1.2.16-.555 0-1.008-.064-1.36-.192a1.828 1.828 0 0 1-.832-.576 2.303 2.303 0 0 1-.4-.944 7.012 7.012 0 0 1-.112-1.328V9.68h-1.568V8.576h1.568v-2.08l1.312-.224v2.304Zm7.456-1.152c-.277 0-.517-.096-.72-.288-.203-.192-.304-.453-.304-.784 0-.33.101-.592.304-.784.203-.192.443-.288.72-.288.288 0 .528.096.72.288.203.192.304.453.304.784 0 .33-.101.592-.304.784a.977.977 0 0 1-.72.288Zm-.336 2.256h-2.144V8.576h3.456v4.56c0 .736.101 1.232.304 1.488.203.245.507.368.912.368.31 0 .592-.037.848-.112.267-.075.475-.155.624-.24l.192 1.12a8.623 8.623 0 0 1-.272.128 5.006 5.006 0 0 1-.416.128c-.15.043-.32.08-.512.112a3.312 3.312 0 0 1-.576.048c-.47 0-.859-.064-1.168-.192-.31-.128-.56-.32-.752-.576a2.443 2.443 0 0 1-.384-.944 7.012 7.012 0 0 1-.112-1.328V9.68Zm6.128-.896c.48-.117.955-.208 1.424-.272.48-.064.928-.096 1.344-.096.992 0 1.739.256 2.24.768.512.512.768 1.333.768 2.464V16H67.6v-4.112c0-.48-.043-.87-.128-1.168-.085-.299-.208-.528-.368-.688a1.146 1.146 0 0 0-.56-.352 2.442 2.442 0 0 0-.704-.096c-.213 0-.443.016-.688.048a7.117 7.117 0 0 0-.688.096V16h-1.328V8.784Zm12.4 6.528c-.15.085-.379.176-.688.272-.31.096-.667.144-1.072.144a3.6 3.6 0 0 1-1.232-.208 2.927 2.927 0 0 1-.992-.656 3.406 3.406 0 0 1-.672-1.12c-.16-.459-.24-.997-.24-1.616 0-.544.075-1.04.224-1.488a3.57 3.57 0 0 1 .672-1.184 3.06 3.06 0 0 1 1.088-.768A3.514 3.514 0 0 1 74.08 8.4c.64 0 1.184.048 1.632.144.459.085.843.17 1.152.256v6.624c0 1.152-.293 1.984-.88 2.496-.576.512-1.45.768-2.624.768-.48 0-.917-.037-1.312-.112a7.074 7.074 0 0 1-1.024-.272l.24-1.168c.277.117.592.213.944.288a5.85 5.85 0 0 0 1.184.112c.768 0 1.317-.155 1.648-.464.33-.31.496-.81.496-1.504v-.256Zm0-5.568a3.153 3.153 0 0 0-.528-.112 5.107 5.107 0 0 0-.912-.064c-.683 0-1.205.235-1.568.704-.352.47-.528 1.093-.528 1.872 0 .427.048.795.144 1.104.107.299.245.55.416.752.181.192.384.336.608.432.224.085.464.128.72.128.33 0 .64-.048.928-.144a2.67 2.67 0 0 0 .72-.336V9.744Zm4.848 7.52c.192-.043.379-.085.56-.128.192-.043.368-.107.528-.192.16-.075.304-.176.432-.304.128-.117.23-.283.304-.496-.341-.032-.592-.16-.752-.384a1.28 1.28 0 0 1-.224-.688c0-.427.117-.747.352-.96.245-.224.523-.336.832-.336.395 0 .693.144.896.432.203.277.304.619.304 1.024 0 .31-.064.63-.192.96a2.768 2.768 0 0 1-.56.944c-.245.299-.555.55-.928.752-.373.213-.816.352-1.328.416l-.224-1.04Zm17.04-11.28c.565 0 1.077.064 1.536.192.459.128.853.325 1.184.592.331.267.581.608.752 1.024.181.405.272.885.272 1.44 0 .576-.117 1.099-.352 1.568-.235.47-.624.827-1.168 1.072.181.277.373.587.576.928.203.33.4.683.592 1.056.192.363.373.73.544 1.104.181.363.336.71.464 1.04H99.76a13.798 13.798 0 0 0-.864-1.84c-.32-.597-.667-1.2-1.04-1.808h-1.024V16h-1.968V6.24c.192-.043.4-.08.624-.112.235-.043.47-.07.704-.08.235-.021.459-.037.672-.048.213-.01.4-.016.56-.016Zm1.744 3.232c0-.523-.16-.907-.48-1.152-.32-.245-.741-.368-1.264-.368a2.8 2.8 0 0 0-.272.016c-.107 0-.213.01-.32.032v2.976h.432c.672 0 1.157-.128 1.456-.384.299-.267.448-.64.448-1.12Zm3.328 3.088c0-.661.101-1.243.304-1.744.203-.501.469-.917.8-1.248a3.248 3.248 0 0 1 1.136-.768c.427-.17.864-.256 1.312-.256 1.109 0 1.952.33 2.528.992.576.65.864 1.605.864 2.864 0 .128-.005.261-.016.4 0 .139-.005.25-.016.336h-4.88c0 .49.203.88.608 1.168.405.277.928.416 1.568.416a4.74 4.74 0 0 0 1.12-.128c.363-.085.667-.17.912-.256l.272 1.68a8.097 8.097 0 0 1-1.088.288 5.996 5.996 0 0 1-1.296.128c-.64 0-1.216-.08-1.728-.24a3.775 3.775 0 0 1-1.296-.736 3.348 3.348 0 0 1-.816-1.216c-.192-.48-.288-1.04-.288-1.68Zm5.04-.784a2.04 2.04 0 0 0-.08-.576 1.445 1.445 0 0 0-.256-.512 1.22 1.22 0 0 0-.448-.352 1.421 1.421 0 0 0-.672-.144c-.256 0-.48.043-.672.128a1.377 1.377 0 0 0-.464.352c-.117.15-.213.32-.288.512a2.77 2.77 0 0 0-.128.592h3.008Zm6.48 3.072h.624c.203-.01.379-.027.528-.048v-1.728a4.506 4.506 0 0 0-.464-.048 4.283 4.283 0 0 0-.496-.032c-.203 0-.4.016-.592.048a1.797 1.797 0 0 0-.512.128.84.84 0 0 0-.336.272.773.773 0 0 0-.128.464c0 .341.128.587.384.736.256.139.587.208.992.208Zm-.176-6.304c.619 0 1.131.075 1.536.224.416.139.747.341.992.608.245.256.421.576.528.96.107.373.16.795.16 1.264v4.48c-.288.064-.715.139-1.28.224-.565.085-1.2.128-1.904.128-.48 0-.917-.043-1.312-.128a2.781 2.781 0 0 1-.992-.416 2.031 2.031 0 0 1-.64-.768c-.149-.32-.224-.71-.224-1.168 0-.437.085-.805.256-1.104.171-.299.4-.539.688-.72.288-.181.619-.31.992-.384a5.229 5.229 0 0 1 1.168-.128c.512 0 .965.043 1.36.128v-.24c0-.373-.117-.683-.352-.928-.235-.256-.64-.384-1.216-.384-.373 0-.736.027-1.088.08a4.852 4.852 0 0 0-.832.192l-.272-1.584c.245-.085.592-.16 1.04-.224a8.456 8.456 0 0 1 1.392-.112Zm6.608 3.904c0 .672.123 1.221.368 1.648.256.427.661.64 1.216.64a5.85 5.85 0 0 0 .88-.064V10.32a2.227 2.227 0 0 0-.512-.208 1.912 1.912 0 0 0-.608-.096c-.469 0-.811.187-1.024.56-.213.373-.32.912-.32 1.616Zm4.432 3.584a8.108 8.108 0 0 1-1.328.288c-.523.075-1.035.112-1.536.112-1.173 0-2.064-.347-2.672-1.04-.597-.693-.896-1.643-.896-2.848 0-1.227.251-2.192.752-2.896.512-.715 1.264-1.072 2.256-1.072.267 0 .528.032.784.096.256.053.48.133.672.24V5.232l1.968-.336v10.88Zm8.672-7.296c-.203.704-.4 1.397-.592 2.08a52.566 52.566 0 0 1-.576 1.984c-.203.64-.421 1.27-.656 1.888a24.487 24.487 0 0 1-.736 1.808 9.325 9.325 0 0 1-.608 1.104c-.192.31-.411.56-.656.752a2.277 2.277 0 0 1-.8.448 3.248 3.248 0 0 1-1.024.144 4.86 4.86 0 0 1-.912-.08 2.939 2.939 0 0 1-.672-.208l.368-1.648c.213.096.4.16.56.192.171.043.352.064.544.064.384 0 .693-.128.928-.384.235-.256.421-.56.56-.912a38.34 38.34 0 0 1-1.408-3.216 38.065 38.065 0 0 1-1.28-4.016h2.048c.096.395.203.816.32 1.264.128.448.261.896.4 1.344.139.448.283.89.432 1.328.16.427.32.827.48 1.2a63.116 63.116 0 0 0 .672-2.512c.107-.448.208-.896.304-1.344.107-.448.203-.875.288-1.28h2.016Zm2.832 8.784c.192-.043.379-.085.56-.128.192-.043.368-.107.528-.192.16-.075.304-.176.432-.304.128-.117.229-.283.304-.496-.341-.032-.592-.16-.752-.384-.149-.235-.224-.464-.224-.688 0-.427.117-.747.352-.96.245-.224.523-.336.832-.336.395 0 .693.144.896.432.203.277.304.619.304 1.024 0 .31-.064.63-.192.96a2.763 2.763 0 0 1-.56.944c-.245.299-.555.55-.928.752-.373.213-.816.352-1.328.416l-.224-1.04Zm40 0c.192-.043.379-.085.56-.128.192-.043.368-.107.528-.192.16-.075.304-.176.432-.304.128-.117.229-.283.304-.496-.341-.032-.592-.16-.752-.384-.149-.235-.224-.464-.224-.688 0-.427.117-.747.352-.96.245-.224.523-.336.832-.336.395 0 .693.144.896.432.203.277.304.619.304 1.024 0 .31-.064.63-.192.96a2.763 2.763 0 0 1-.56.944c-.245.299-.555.55-.928.752-.373.213-.816.352-1.328.416l-.224-1.04Zm50.304-8.48c0 .395-.005.757-.016 1.088-.011.33-.032.645-.064.944-.021.299-.048.597-.08.896-.032.288-.064.592-.096.912h-.912c-.032-.32-.064-.624-.096-.912l-.096-.896a25.633 25.633 0 0 1-.048-.944 32.95 32.95 0 0 1-.016-1.088V6.096h1.424v2.688Zm-.72 7.408c-.288 0-.539-.096-.752-.288-.213-.203-.32-.47-.32-.8 0-.33.107-.592.32-.784.213-.203.464-.304.752-.304.299 0 .549.101.752.304.213.192.32.453.32.784 0 .33-.107.597-.32.8a1.051 1.051 0 0 1-.752.288Z"/><path fill="#F2C94C" d="M153.808 15.056c.288 0 .571-.032.848-.096a2.46 2.46 0 0 0 .768-.304c.224-.15.4-.341.528-.576.139-.245.208-.544.208-.896a1.22 1.22 0 0 0-.144-.608 1.443 1.443 0 0 0-.368-.48 2.395 2.395 0 0 0-.544-.4 9.575 9.575 0 0 0-.672-.384 8.02 8.02 0 0 1-.656-.384 2.725 2.725 0 0 1-.56-.48 2.617 2.617 0 0 1-.4-.672 2.843 2.843 0 0 1-.144-.96c0-.864.299-1.568.896-2.112.608-.555 1.525-.832 2.752-.832a5.067 5.067 0 0 1 1.472.224c.213.064.4.133.56.208.16.064.283.123.368.176l-.624 1.056c-.16-.139-.416-.256-.768-.352a4.326 4.326 0 0 0-1.248-.16c-.299 0-.576.032-.832.096a1.952 1.952 0 0 0-.656.304 1.361 1.361 0 0 0-.432.512c-.107.213-.16.464-.16.752 0 .245.037.453.112.624.075.17.176.32.304.448s.283.245.464.352c.192.107.4.219.624.336.277.15.539.299.784.448.245.139.453.31.624.512.181.192.32.421.416.688.107.267.16.587.16.96 0 .523-.096.981-.288 1.376a2.64 2.64 0 0 1-.784.992 3.4 3.4 0 0 1-1.2.576 5.521 5.521 0 0 1-1.568.208c-.736 0-1.339-.085-1.808-.256-.469-.17-.795-.32-.976-.448l.608-1.088c.181.117.464.256.848.416.384.15.88.224 1.488.224Zm6.784-2.96c.64-.01 1.216-.037 1.728-.08a5.5 5.5 0 0 0 1.296-.272c.363-.128.64-.304.832-.528.192-.235.288-.528.288-.88a.666.666 0 0 0-.064-.272.64.64 0 0 0-.192-.272.925.925 0 0 0-.368-.208 1.89 1.89 0 0 0-.592-.08 2.39 2.39 0 0 0-1.024.224 2.99 2.99 0 0 0-.848.576 3.493 3.493 0 0 0-.656.816c-.171.31-.304.635-.4.976Zm1.616 4.096c-.523 0-.976-.075-1.36-.224a2.933 2.933 0 0 1-.96-.624 2.519 2.519 0 0 1-.576-.88 3.235 3.235 0 0 1-.176-1.056c0-.672.101-1.312.304-1.92a4.73 4.73 0 0 1 .912-1.584 4.334 4.334 0 0 1 1.424-1.088c.565-.277 1.2-.416 1.904-.416.416 0 .773.053 1.072.16.299.096.544.23.736.4.192.16.331.352.416.576.096.224.144.459.144.704 0 .672-.171 1.195-.512 1.568-.341.373-.784.656-1.328.848a7.687 7.687 0 0 1-1.824.352 41.45 41.45 0 0 1-1.952.112c-.064.672.112 1.163.528 1.472.416.299.965.448 1.648.448.224 0 .453-.016.688-.048.245-.043.469-.085.672-.128.213-.053.4-.107.56-.16a2.02 2.02 0 0 0 .336-.16l.112 1.12c-.203.107-.533.219-.992.336-.459.128-1.051.192-1.776.192Zm10.816-.4a8.686 8.686 0 0 1-.976.272 4.788 4.788 0 0 1-1.056.112 3.7 3.7 0 0 1-.864-.096 2.117 2.117 0 0 1-.688-.304 1.616 1.616 0 0 1-.464-.592c-.107-.245-.16-.555-.16-.928 0-.235.016-.48.048-.736.043-.256.096-.517.16-.784l.752-3.056h-1.568l.256-1.104h1.584l.496-2.08 1.376-.224-.56 2.304h2.848l-.256 1.104h-2.864l-.752 3.184c-.053.203-.101.4-.144.592a2.558 2.558 0 0 0-.064.56c0 .405.091.677.272.816.192.128.459.192.8.192.331 0 .651-.032.96-.096.32-.075.619-.165.896-.272l-.032 1.136Z"/><path fill="#fff" d="M193.712 14.56c.331 0 .603-.032.816-.096.224-.075.4-.17.528-.288a.966.966 0 0 0 .256-.416c.053-.16.08-.32.08-.48a.899.899 0 0 0-.176-.544 1.678 1.678 0 0 0-.448-.416 3.303 3.303 0 0 0-.608-.336 9.061 9.061 0 0 0-.672-.288c-.299-.107-.608-.23-.928-.368a3.865 3.865 0 0 1-.88-.528 2.72 2.72 0 0 1-.64-.784c-.171-.32-.256-.715-.256-1.184 0-.928.299-1.653.896-2.176.608-.523 1.44-.784 2.496-.784.608 0 1.136.07 1.584.208.459.139.843.293 1.152.464l-.576 1.52a4.924 4.924 0 0 0-.896-.384 3.544 3.544 0 0 0-1.12-.16c-1.045 0-1.568.379-1.568 1.136 0 .192.053.363.16.512.107.139.24.267.4.384.171.107.357.203.56.288.213.085.421.165.624.24.309.117.629.25.96.4.341.139.651.33.928.576.288.235.523.533.704.896.181.352.272.8.272 1.344 0 .928-.304 1.648-.912 2.16-.597.501-1.509.752-2.736.752-.821 0-1.477-.085-1.968-.256-.491-.181-.859-.347-1.104-.496l.576-1.6a6.7 6.7 0 0 0 1.024.48c.405.15.896.224 1.472.224ZM205.6 6.096v1.632h-2.608V16h-1.984V7.728H198.4V6.096h7.2Zm2.832 4.944c0 .48.016.933.048 1.36.043.416.117.779.224 1.088.117.31.277.555.48.736.203.181.475.272.816.272.331 0 .597-.09.8-.272.213-.181.373-.427.48-.736a4.14 4.14 0 0 0 .224-1.104c.043-.416.064-.864.064-1.344 0-.48-.021-.928-.064-1.344a3.97 3.97 0 0 0-.224-1.104 1.712 1.712 0 0 0-.464-.736c-.203-.181-.475-.272-.816-.272-.341 0-.613.09-.816.272-.203.181-.363.432-.48.752a4.89 4.89 0 0 0-.224 1.088 17.58 17.58 0 0 0-.048 1.344Zm-2 0c0-1.707.315-2.992.944-3.856.629-.875 1.504-1.312 2.624-1.312 1.163 0 2.048.437 2.656 1.312.608.864.912 2.15.912 3.856 0 1.707-.309 2.997-.928 3.872-.619.864-1.493 1.296-2.624 1.296-1.163 0-2.053-.432-2.672-1.296-.608-.875-.912-2.165-.912-3.872Zm11.152-5.056c1.259 0 2.235.261 2.928.784.693.512 1.04 1.355 1.04 2.528 0 1.184-.352 2.043-1.056 2.576-.693.523-1.68.784-2.96.784h-.704V16h-1.968V6.224a7.837 7.837 0 0 1 1.376-.176 17.407 17.407 0 0 1 1.344-.064Zm.224 1.712c-.117 0-.283.005-.496.016-.203 0-.363.01-.48.032v3.2h.8c.629 0 1.104-.123 1.424-.368.32-.256.48-.688.48-1.296 0-.576-.16-.981-.48-1.216-.309-.245-.725-.368-1.248-.368ZM190 18.128h32v.32h-32v-.32Z"/><path fill="#000" d="m17.01 11.522-5.236 3.982a10.48 10.48 0 0 1-.704.44 1.13 1.13 0 0 1-.55.132c-.367 0-.66-.103-.88-.308-.22-.205-.33-.491-.33-.858l4.466-3.388L9.97 8.684a2.279 2.279 0 0 1-.484-.572 1.392 1.392 0 0 1-.176-.66c0-.352.125-.616.374-.792.25-.176.565-.264.946-.264l6.38 5.126Z"/></svg>